PathFileType	4	(X/Y/Z)	Walk5.trc
DataRate	CameraRate	NumFrames	NumMarkers	Units	OrigDataRate	OrigDataStartFrame	OrigNumFrames
200.000000	200.000000	4	59	mm	200.000000	363	561
Frame#	Times		LFHD		C7		CLAV		STRN		RBack		LASI		RASI		RACR1		RUA1		RElbow		RFA1		RWRU		RCAR		LACR1		LFA1		LWRR		LCAR		RTH1		RTH2		RTH4		RLFC		LTH1		LTH3		LTH2		LLFC		LTB1		LTB3		LTB2		LTB4		LMT1		LToe		LMMAL		T10		RWRR		LMT5		LTH4		RFHD		LLMAL		RTH3		LPSI		RPSI		RBHD		LElbowM		RMT1		LUA1		RTB1		RMMAL		LBHD		LElbow		RTB2		RTB4		LWRU		RMT5		RElbowM		RTB3		RToe		RLMAL		RCAL		LCAL
			X1	Y1	Z1	X2	Y2	Z2	X3	Y3	Z3	X4	Y4	Z4	X5	Y5	Z5	X6	Y6	Z6	X7	Y7	Z7	X8	Y8	Z8	X9	Y9	Z9	X10	Y10	Z10	X11	Y11	Z11	X12	Y12	Z12	X13	Y13	Z13	X14	Y14	Z14	X15	Y15	Z15	X16	Y16	Z16	X17	Y17	Z17	X18	Y18	Z18	X19	Y19	Z19	X20	Y20	Z20	X21	Y21	Z21	X22	Y22	Z22	X23	Y23	Z23	X24	Y24	Z24	X25	Y25	Z25	X26	Y26	Z26	X27	Y27	Z27	X28	Y28	Z28	X29	Y29	Z29	X30	Y30	Z30	X31	Y31	Z31	X32	Y32	Z32	X33	Y33	Z33	X34	Y34	Z34	X35	Y35	Z35	X36	Y36	Z36	X37	Y37	Z37	X38	Y38	Z38	X39	Y39	Z39	X40	Y40	Z40	X41	Y41	Z41	X42	Y42	Z42	X43	Y43	Z43	X44	Y44	Z44	X45	Y45	Z45	X46	Y46	Z46	X47	Y47	Z47	X48	Y48	Z48	X49	Y49	Z49	X50	Y50	Z50	X51	Y51	Z51	X52	Y52	Z52	X53	Y53	Z53	X54	Y54	Z54	X55	Y55	Z55	X56	Y56	Z56	X57	Y57	Z57	X58	Y58	Z58	X59	Y59	Z59

363	1.815	63.796	1572.1	-53.623	-86.369	1396.8	-19.469	43.602	1322.9	-29.241	125.67	1099.6	-36.143	-124.7	1287.5	71.199	51.263	915.25	-164.95	89.333	928.94	102.02	-8.3126	1326.2	146.25	-59.187	1119.2	202.73	-98.436	1017.8	221.92	-59.713	870.4	238.1	-105.28	767.38	254.03	-66.723	719.63	254.07	-21.701	1342.5	-197.05	104.85	926.95	-281.52	196.12	800.2	-286.73	181.2	840.96	-245.25	35.783	743.91	162.08	122.93	685.29	108.64	66.962	655.62	144.79	125.95	469.03	115.78	-65.515	707.77	-180.46	-79.636	524.36	-149.31	-2.1483	609.23	-137.54	-112.11	420.41	-135.68	-146.29	319.64	-60.82	-277.63	185.37	-68.409	-225.12	267.04	-137.54	-211.58	249.84	-69.01	-264.08	37.136	-69.952	-220.81	26.932	-99.877	-358.17	123.55	-38.468	-112.74	1113.2	-23.181	-51.013	762.45	203.77	-307.53	26.54	-144.59	-73.984	612.02	-165.55	72.274	1574.1	19.361	-377.09	120.89	-120.02	97.349	567.57	127.29	-146.99	952.01	-55.931	-132.22	960.94	57.323	-93.438	1519.5	60.105	-13.248	996.11	-204.03	326.85	42.33	45.256	-9.8089	1136	-252.72	175.98	353.97	40.57	185.91	77.165	10.23	-103.44	1527.4	-66.48	2.3861	1015.9	-269.62	172.35	263.26	110.13	183.45	261.3	40.328	132.34	807.66	-285.98	282.46	22.305	123.12	-108.01	996.97	138.01	192.23	169.45	39.17	365.65	37.918	74.94	167	57.529	87.657	126.53	22.545	38.874	-435.45	119.1	-66.271
364	1.82	69.381	1572.7	-52.623	-80.045	1397	-18.415	49.979	1323.3	-28.136	132.23	1100	-35.09	-118.25	1287.6	72.209	58.054	915.09	-163.09	95.837	929.44	102.82	-1.9441	1326.4	147.31	-52.375	1119.2	203.56	-91.474	1017.7	222.66	-52.572	870.4	238.73	-97.982	767.3	254.54	-59.274	719.66	254.64	-15.056	1342.9	-195.94	109.72	926.57	-280.86	200.4	799.64	-287.06	186.44	840.6	-245.48	42.727	744.68	162.52	129.83	686.43	108.66	73.969	656.52	144.71	132.66	469.63	115.78	-57.996	707.62	-179.51	-71.121	524.07	-148.93	5.7342	609.4	-136.46	-103.44	420.49	-135.55	-138.95	319.96	-61.298	-272.4	187.88	-69.697	-218.65	269.17	-138.3	-205.35	251.33	-69.909	-263.53	37.286	-70.128	-220.96	26.802	-99.751	-353.97	127.47	-40.017	-106.63	1113.5	-22.41	-43.634	762.5	204.33	-306.66	27.685	-144.72	-65.955	611.78	-164.91	77.862	1574.8	20.351	-372.89	125.23	-121.5	104.57	568.62	127.06	-140.8	952	-55.408	-125.98	961.44	57.965	-87.595	1519.5	61.165	-7.154	996.5	-202.06	327.6	40.865	44.596	-3.7105	1136.2	-251.31	180.81	353.83	40.286	186.58	76.785	9.8692	-97.652	1527.2	-65.425	7.829	1016	-267.88	176.51	263.16	109.92	186.96	261.06	39.959	136.75	807.14	-285	282.78	21.774	123.49	-101.04	997	138.73	194.42	169.1	38.745	366.84	35.784	74.291	167.79	57.605	87.395	126.63	22.912	38.966	-430.98	125.37	-67.949
365	1.825	74.985	1573.3	-51.635	-73.735	1397.3	-17.38	56.334	1323.7	-27.047	138.75	1100.5	-34.029	-111.81	1287.9	73.222	64.88	914.99	-161.17	102.3	930	103.64	4.4346	1326.7	148.35	-45.519	1119.3	204.37	-84.471	1017.7	223.39	-45.356	870.49	239.34	-90.597	767.28	255.03	-51.74	719.76	255.19	-8.4151	1343.3	-194.84	114.52	926.21	-280.18	204.51	799.04	-287.35	191.54	840.21	-245.68	49.488	745.4	163	136.58	687.53	108.74	80.817	657.38	144.68	139.25	470.21	115.81	-50.389	707.51	-178.57	-62.353	523.81	-148.57	13.786	609.68	-135.41	-94.425	420.62	-135.46	-131.24	320.34	-61.813	-266.78	190.51	-71.014	-211.82	271.41	-139.06	-198.74	252.9	-70.826	-262.86	37.531	-70.33	-221.11	26.663	-99.643	-349.37	131.54	-41.57	-100.56	1113.9	-21.643	-36.173	762.63	204.88	-305.62	29.018	-144.85	-57.757	611.58	-164.28	83.468	1575.5	21.327	-368.32	129.72	-122.99	111.65	569.63	126.88	-134.66	952.04	-54.885	-119.77	961.96	58.6	-81.735	1519.5	62.211	-1.117	996.96	-200.12	328.21	39.72	44.019	2.3792	1136.5	-249.91	185.5	353.69	40.024	187.12	76.47	9.5362	-91.847	1527.1	-64.383	13.238	1016.1	-266.14	180.49	263.06	109.74	190.34	260.84	39.617	141.02	806.63	-283.96	283.03	21.392	123.82	-94.003	997.12	139.43	196.47	168.79	38.349	367.87	34.048	73.764	168.46	57.711	87.159	126.69	23.232	39.057	-426.03	131.86	-69.628
366	1.83	80.608	1574	-50.662	-67.445	1397.6	-16.363	62.66	1324.2	-25.98	145.24	1101	-32.965	-105.38	1288.2	74.24	71.734	914.95	-159.22	108.73	930.62	104.45	10.82	1327	149.38	-38.623	1119.4	205.16	-77.431	1017.8	224.1	-38.068	870.64	239.93	-83.128	767.35	255.52	-44.12	719.94	255.72	-1.7895	1343.7	-193.75	119.23	925.88	-279.48	208.46	798.42	-287.6	196.49	839.79	-245.83	56.062	746.06	163.51	143.17	688.57	108.91	87.497	658.17	144.72	145.69	470.76	115.85	-42.703	707.45	-177.65	-53.348	523.6	-148.25	21.996	610.05	-134.39	-85.099	420.8	-135.41	-123.18	320.78	-62.359	-260.77	193.22	-72.345	-204.63	273.75	-139.84	-191.77	254.55	-71.755	-262.05	37.887	-70.558	-221.23	26.518	-99.556	-344.37	135.73	-43.11	-94.525	1114.4	-20.877	-28.631	762.84	205.41	-304.4	30.551	-144.99	-49.403	611.42	-163.68	89.096	1576.3	22.287	-363.36	134.34	-124.47	118.57	570.58	126.76	-128.55	952.13	-54.356	-113.6	962.49	59.23	-75.86	1519.6	63.24	4.8583	997.47	-198.22	328.71	38.853	43.522	8.4588	1136.8	-248.53	190.04	353.55	39.8	187.57	76.212	9.2341	-86.027	1527.1	-63.356	18.613	1016.2	-264.43	184.27	262.96	109.58	193.59	260.63	39.314	145.16	806.14	-282.89	283.2	21.133	124.12	-86.916	997.32	140.12	198.39	168.52	37.992	368.77	32.667	73.35	169.01	57.837	86.951	126.74	23.506	39.146	-420.62	138.52	-71.292
